<svg width="34" height="31" viewBox="0 0 34 31" fill="none" xmlns="http://www.w3.org/2000/svg">
<path d="M31.4035 30.3849C31.0152 30.3849 30.6269 30.2766 30.286 30.0617L22.8675 25.3851H2.66377C1.49377 25.3851 0.545898 24.424 0.545898 23.2376V2.66405C0.545898 1.47771 1.49377 0.516602 2.66377 0.516602H25.0431C26.2131 0.516602 27.1609 1.47771 27.1609 2.66405C27.1609 3.85039 26.2131 4.8115 25.0431 4.8115H4.77995V21.0936H23.4712C23.8663 21.0936 24.2529 21.2054 24.5886 21.4168L29.2856 24.3775V14.3796C29.2856 13.1933 30.2335 12.2322 31.4035 12.2322C32.5735 12.2322 33.5213 13.1933 33.5213 14.3796V28.2409C33.5213 29.0197 33.1042 29.7384 32.4327 30.1167C32.1122 30.2972 31.7579 30.3866 31.4052 30.3866L31.4035 30.3849Z" fill="#6D3CB8"/>
</svg>
