<svg width="120" height="24" viewBox="0 0 120 24" fill="none" xmlns="http://www.w3.org/2000/svg">
<path d="M10.8592 3.51237C11.2192 2.40717 12.7828 2.40717 13.1416 3.51237L14.4256 7.46277C14.504 7.70336 14.6565 7.91299 14.8612 8.0617C15.066 8.21041 15.3125 8.29059 15.5656 8.29077H19.72C20.8828 8.29077 21.3652 9.77877 20.4256 10.4628L17.0656 12.9036C16.8604 13.0524 16.7076 13.2624 16.6292 13.5034C16.5507 13.7444 16.5506 14.0041 16.6288 14.2452L17.9128 18.1956C18.2728 19.3008 17.0068 20.2212 16.0648 19.5372L12.7048 17.0964C12.4998 16.9476 12.253 16.8674 11.9998 16.8674C11.7465 16.8674 11.4997 16.9476 11.2948 17.0964L7.93476 19.5372C6.99396 20.2212 5.72916 19.3008 6.08796 18.1956L7.37196 14.2452C7.45017 14.0041 7.45003 13.7444 7.37156 13.5034C7.29309 13.2624 7.14032 13.0524 6.93516 12.9036L3.57636 10.464C2.63676 9.77997 3.12036 8.29197 4.28196 8.29197H8.43516C8.68842 8.29204 8.9352 8.21198 9.14019 8.06325C9.34517 7.91452 9.49785 7.70475 9.57636 7.46397L10.8604 3.51357L10.8592 3.51237Z" fill="#FBBC05"/>
<path d="M34.8592 3.51237C35.2192 2.40717 36.7828 2.40717 37.1416 3.51237L38.4256 7.46277C38.504 7.70336 38.6565 7.91299 38.8612 8.0617C39.066 8.21041 39.3125 8.29059 39.5656 8.29077H43.72C44.8828 8.29077 45.3652 9.77877 44.4256 10.4628L41.0656 12.9036C40.8604 13.0524 40.7076 13.2624 40.6292 13.5034C40.5507 13.7444 40.5506 14.0041 40.6288 14.2452L41.9128 18.1956C42.2728 19.3008 41.0068 20.2212 40.0648 19.5372L36.7048 17.0964C36.4998 16.9476 36.253 16.8674 35.9998 16.8674C35.7465 16.8674 35.4997 16.9476 35.2948 17.0964L31.9348 19.5372C30.994 20.2212 29.7292 19.3008 30.088 18.1956L31.372 14.2452C31.4502 14.0041 31.45 13.7444 31.3716 13.5034C31.2931 13.2624 31.1403 13.0524 30.9352 12.9036L27.5764 10.464C26.6368 9.77997 27.1204 8.29197 28.282 8.29197H32.4352C32.6884 8.29204 32.9352 8.21198 33.1402 8.06325C33.3452 7.91452 33.4978 7.70475 33.5764 7.46397L34.8604 3.51357L34.8592 3.51237Z" fill="#FBBC05"/>
<path d="M58.8592 3.51237C59.2192 2.40717 60.7828 2.40717 61.1416 3.51237L62.4256 7.46277C62.504 7.70336 62.6565 7.91299 62.8612 8.0617C63.066 8.21041 63.3125 8.29059 63.5656 8.29077H67.72C68.8828 8.29077 69.3652 9.77877 68.4256 10.4628L65.0656 12.9036C64.8604 13.0524 64.7076 13.2624 64.6292 13.5034C64.5507 13.7444 64.5506 14.0041 64.6288 14.2452L65.9128 18.1956C66.2728 19.3008 65.0068 20.2212 64.0648 19.5372L60.7048 17.0964C60.4998 16.9476 60.253 16.8674 59.9998 16.8674C59.7465 16.8674 59.4997 16.9476 59.2948 17.0964L55.9348 19.5372C54.994 20.2212 53.7292 19.3008 54.088 18.1956L55.372 14.2452C55.4502 14.0041 55.45 13.7444 55.3716 13.5034C55.2931 13.2624 55.1403 13.0524 54.9352 12.9036L51.5764 10.464C50.6368 9.77997 51.1204 8.29197 52.282 8.29197H56.4352C56.6884 8.29204 56.9352 8.21198 57.1402 8.06325C57.3452 7.91452 57.4978 7.70475 57.5764 7.46397L58.8604 3.51357L58.8592 3.51237Z" fill="#FBBC05"/>
<path d="M82.8592 3.51237C83.2192 2.40717 84.7828 2.40717 85.1416 3.51237L86.4256 7.46277C86.504 7.70336 86.6565 7.91299 86.8612 8.0617C87.066 8.21041 87.3125 8.29059 87.5656 8.29077H91.72C92.8828 8.29077 93.3652 9.77877 92.4256 10.4628L89.0656 12.9036C88.8604 13.0524 88.7076 13.2624 88.6292 13.5034C88.5507 13.7444 88.5506 14.0041 88.6288 14.2452L89.9128 18.1956C90.2728 19.3008 89.0068 20.2212 88.0648 19.5372L84.7048 17.0964C84.4998 16.9476 84.253 16.8674 83.9998 16.8674C83.7465 16.8674 83.4997 16.9476 83.2948 17.0964L79.9348 19.5372C78.994 20.2212 77.7292 19.3008 78.088 18.1956L79.372 14.2452C79.4502 14.0041 79.45 13.7444 79.3716 13.5034C79.2931 13.2624 79.1403 13.0524 78.9352 12.9036L75.5764 10.464C74.6368 9.77997 75.1204 8.29197 76.282 8.29197H80.4352C80.6884 8.29204 80.9352 8.21198 81.1402 8.06325C81.3452 7.91452 81.4978 7.70475 81.5764 7.46397L82.8604 3.51357L82.8592 3.51237Z" fill="#FBBC05"/>
<path d="M106.859 3.51237C107.219 2.40717 108.783 2.40717 109.142 3.51237L110.426 7.46277C110.504 7.70336 110.656 7.91299 110.861 8.0617C111.066 8.21041 111.313 8.29059 111.566 8.29077H115.72C116.883 8.29077 117.365 9.77877 116.426 10.4628L113.066 12.9036C112.86 13.0524 112.708 13.2624 112.629 13.5034C112.551 13.7444 112.551 14.0041 112.629 14.2452L113.913 18.1956C114.273 19.3008 113.007 20.2212 112.065 19.5372L108.705 17.0964C108.5 16.9476 108.253 16.8674 108 16.8674C107.746 16.8674 107.5 16.9476 107.295 17.0964L103.935 19.5372C102.994 20.2212 101.729 19.3008 102.088 18.1956L103.372 14.2452C103.45 14.0041 103.45 13.7444 103.372 13.5034C103.293 13.2624 103.14 13.0524 102.935 12.9036L99.5764 10.464C98.6368 9.77997 99.1204 8.29197 100.282 8.29197H104.435C104.688 8.29204 104.935 8.21198 105.14 8.06325C105.345 7.91452 105.498 7.70475 105.576 7.46397L106.86 3.51357L106.859 3.51237Z" fill="#FBBC05"/>
</svg>
